<svg xmlns="http://www.w3.org/2000/svg" viewBox="0 0 804.28 1120.46"><defs><style>.cls-1{isolation:isolate;}.cls-2{fill:#f4f4f4;}.cls-3{fill:#d6d6d6;}.cls-4{fill:#c5d2d3;}.cls-5{fill:#0467ac;}.cls-6{fill:#47436b;}.cls-7{fill:#fff;}.cls-8{fill:#a6d2dd;}.cls-9{fill:#5b2568;}.cls-10{fill:#fbba00;}.cls-11{fill:#ffefc7;}.cls-12{fill:#6288a3;}.cls-13{fill:#e94272;}.cls-14{fill:#fed250;}.cls-15{fill:#6474e8;}.cls-16{fill:#fffffc;}.cls-17{fill:#fcb794;}.cls-18{fill:#c04075;}.cls-19{fill:#cbe9ed;}.cls-20{fill:#965250;}.cls-21{fill:#343254;}.cls-22{fill:#615a8d;}.cls-23{fill:#3ae0c1;}.cls-24{fill:#27c4a6;}.cls-25{fill:#a48213;}.cls-26{fill:#702283;}.cls-27{fill:#832999;}.cls-28{fill:#db2e68;}.cls-29{fill:#f4588c;}.cls-30{fill:#ffb703;}.cls-31{fill:#272747;}.cls-32{fill:#424270;}.cls-33{fill:#343259;}.cls-34{fill:#fdfdff;}.cls-35{fill:#4a3d57;}.cls-36{fill:#f8b38d;}.cls-37{fill:#4b291d;}</style></defs><title>isometria-xd</title><g id="Camada_2" data-name="Camada 2"><g id="Layer_1" data-name="Layer 1"><g class="cls-1"><polygon class="cls-2" points="402.81 595.17 237.14 690.98 121.48 624.53 287.15 528.72 402.81 595.17"/><polygon class="cls-3" points="402.81 595.17 402.79 602.87 237.12 698.67 237.14 690.98 402.81 595.17"/><polygon class="cls-3" points="237.14 690.98 237.12 698.67 121.45 632.23 121.48 624.53 237.14 690.98"/></g><g class="cls-1"><polygon class="cls-2" points="402.81 584.14 237.14 679.95 121.48 613.5 287.15 517.69 402.81 584.14"/><polygon class="cls-3" points="402.81 584.14 402.79 591.83 237.12 687.64 237.14 679.95 402.81 584.14"/><polygon class="cls-3" points="237.14 679.95 237.12 687.64 121.45 621.19 121.48 613.5 237.14 679.95"/></g><g class="cls-1"><polygon class="cls-2" points="402.81 573.1 237.14 668.91 121.48 602.46 287.15 506.65 402.81 573.1"/><polygon class="cls-3" points="402.81 573.1 402.79 580.8 237.12 676.61 237.14 668.91 402.81 573.1"/><polygon class="cls-3" points="237.14 668.91 237.12 676.61 121.45 610.16 121.48 602.46 237.14 668.91"/></g><g class="cls-1"><polygon class="cls-2" points="402.81 562.07 237.14 657.88 121.48 591.43 287.15 495.62 402.81 562.07"/><polygon class="cls-3" points="402.81 562.07 402.79 569.76 237.12 665.57 237.14 657.88 402.81 562.07"/><polygon class="cls-3" points="237.14 657.88 237.12 665.57 121.45 599.12 121.48 591.43 237.14 657.88"/></g><g class="cls-1"><polygon class="cls-2" points="402.81 551.03 237.14 646.84 121.48 580.39 287.15 484.58 402.81 551.03"/><polygon class="cls-3" points="402.81 551.03 402.79 558.73 237.12 654.53 237.14 646.84 402.81 551.03"/><polygon class="cls-3" points="237.14 646.84 237.12 654.53 121.45 588.09 121.48 580.39 237.14 646.84"/></g><g class="cls-1"><polygon class="cls-2" points="402.81 540 237.14 635.81 121.48 569.36 287.15 473.55 402.81 540"/><polygon class="cls-3" points="402.81 540 402.79 547.69 237.12 643.5 237.14 635.81 402.81 540"/><polygon class="cls-3" points="237.14 635.81 237.12 643.5 121.45 577.05 121.48 569.36 237.14 635.81"/></g><g class="cls-1"><polygon class="cls-2" points="402.81 528.97 237.14 624.77 121.48 558.32 287.15 462.52 402.81 528.97"/><polygon class="cls-3" points="402.81 528.97 402.79 536.66 237.12 632.47 237.14 624.77 402.81 528.97"/><polygon class="cls-3" points="237.14 624.77 237.12 632.47 121.45 566.02 121.48 558.32 237.14 624.77"/></g><g class="cls-1"><polygon class="cls-2" points="402.81 517.93 237.14 613.74 121.48 547.29 287.15 451.48 402.81 517.93"/><polygon class="cls-3" points="402.81 517.93 402.79 525.63 237.12 621.43 237.14 613.74 402.81 517.93"/><polygon class="cls-3" points="237.14 613.74 237.12 621.43 121.45 554.98 121.48 547.29 237.14 613.74"/></g><path class="cls-4" d="M398.33,2.84C406-1.61,416.56-1,428.24,5.77L662,140.75c23.22,13.4,42,45.89,41.91,72.57l-1.82,640.55c0,13.25-4.72,22.57-12.26,27L669.09,892.9c7.55-4.39,12.22-13.71,12.26-27l1.82-640.55c.07-26.68-18.69-59.17-41.9-72.57l-233.8-135c-11.68-6.74-22.27-7.37-29.91-2.92Z"/><path class="cls-5" d="M407.42,35c-15-8.65-27.14-1.71-27.19,15.5L378.41,691c-.05,17.2,12,38.15,27,46.79l233.8,135c15,8.65,27.14,1.71,27.19-15.49l1.82-640.55c0-17.21-12-38.16-27-46.8L609,151.36c-2.32-1.34-4.2-.26-4.21,2.4,0,11.18-7.94,15.69-17.67,10.08L461.38,91.25C451.66,85.63,443.8,72,443.83,60.84a9.22,9.22,0,0,0-4.18-7.25Z"/><path class="cls-6" d="M363.48,682.41c-.07,26.68,18.69,59.18,41.9,72.58l233.8,135c23.21,13.4,42.1,2.64,42.17-24l1.82-640.55c.07-26.68-18.69-59.17-41.9-72.57l-233.8-135c-23.21-13.4-42.1-2.64-42.17,24ZM474.35,80.5c0,2.87-2,4-4.54,2.58a9.91,9.91,0,0,1-4.51-7.81c0-2.87,2-4,4.54-2.58A9.91,9.91,0,0,1,474.35,80.5Zm93.86,54.19c0,1.4-1,2-2.21,1.26L482.59,87.78a4.81,4.81,0,0,1-2.2-3.79c0-1.4,1-2,2.21-1.26L566,130.89A4.85,4.85,0,0,1,568.21,134.69ZM378.41,691l1.82-640.54c0-17.21,12.23-24.15,27.19-15.5l32.23,18.6a9.26,9.26,0,0,1,4.19,7.25c0,11.18,7.82,24.79,17.55,30.41l125.72,72.58c9.73,5.62,17.64,1.11,17.67-10.07,0-2.66,1.9-3.74,4.21-2.4L641.22,170c15,8.64,27.06,29.59,27,46.8l-1.82,640.55c0,17.2-12.22,24.13-27.19,15.49l-233.8-135C390.46,729.19,378.37,708.23,378.41,691Z"/><path class="cls-7" d="M469.84,72.69c-2.5-1.45-4.53-.29-4.54,2.58a9.91,9.91,0,0,0,4.51,7.81c2.5,1.45,4.53.29,4.54-2.58A9.91,9.91,0,0,0,469.84,72.69Z"/><path class="cls-7" d="M566,130.89,482.6,82.73c-1.21-.7-2.2-.14-2.21,1.26a4.81,4.81,0,0,0,2.2,3.79L566,136c1.22.7,2.21.14,2.21-1.26A4.85,4.85,0,0,0,566,130.89Z"/><polygon class="cls-8" points="331.7 358.6 330.88 647.79 598.14 802.09 598.95 512.9 331.7 358.6"/><polygon class="cls-9" points="598.72 576.62 331.47 422.33 331.67 347.63 598.92 501.93 598.72 576.62"/><polygon class="cls-7" points="495.9 548.34 495.71 615.83 554.45 649.75 554.64 582.25 495.9 548.34"/><polygon class="cls-10" points="495.9 639.98 495.71 707.48 554.45 741.39 554.64 673.89 495.9 639.98"/><polygon class="cls-11" points="368.02 494.67 367.99 503.38 470.8 562.73 470.82 554.03 368.02 494.67"/><polygon class="cls-11" points="368.02 515.29 367.99 523.99 470.8 583.35 470.82 574.64 368.02 515.29"/><polygon class="cls-11" points="368.02 535.9 367.99 544.61 470.8 603.96 470.82 595.26 368.02 535.9"/><polygon class="cls-11" points="368.02 556.52 367.99 565.22 470.8 624.58 470.82 615.87 368.02 556.52"/><polygon class="cls-11" points="368.02 577.13 367.99 585.84 470.8 645.19 470.82 636.49 368.02 577.13"/><polygon class="cls-11" points="368.02 597.75 367.99 606.45 470.8 665.8 470.82 657.1 368.02 597.75"/><polygon class="cls-11" points="368.02 618.36 367.99 627.06 470.8 686.42 470.82 677.71 368.02 618.36"/><polygon class="cls-8" points="302.68 297.46 569.93 451.76 570.67 169.3 303.41 15 302.68 297.46"/><polygon class="cls-9" points="303.41 15 570.67 169.3 570.51 230.28 303.25 75.98 303.41 15"/><polygon class="cls-12" points="434.71 194.48 434.69 203.19 537.49 262.54 537.52 253.84 434.71 194.48"/><polygon class="cls-12" points="434.71 215.1 434.69 223.8 537.49 283.16 537.52 274.45 434.71 215.1"/><polygon class="cls-12" points="434.71 235.71 434.69 244.41 537.49 303.77 537.52 295.06 434.71 235.71"/><polygon class="cls-12" points="434.71 256.32 434.69 265.03 537.49 324.38 537.52 315.68 434.71 256.32"/><polygon class="cls-12" points="434.71 276.94 434.69 285.64 537.49 345 537.52 336.3 434.71 276.94"/><polygon class="cls-12" points="434.71 297.55 434.69 306.26 537.49 365.61 537.52 356.91 434.71 297.55"/><polygon class="cls-12" points="434.71 318.17 434.69 326.87 537.49 386.23 537.52 377.52 434.71 318.17"/><polygon class="cls-12" points="434.71 338.78 434.69 347.49 537.49 406.84 537.52 398.14 434.71 338.78"/><polygon class="cls-7" points="344.23 136.18 344.04 294.01 402.78 327.93 402.97 170.09 344.23 136.18"/><path class="cls-13" d="M328.32,51.23c-3.84-2.22-7-.44-7,4a15.31,15.31,0,0,0,6.94,12c3.84,2.22,7,.44,7-4A15.28,15.28,0,0,0,328.32,51.23Z"/><path class="cls-14" d="M349.39,63.4c-3.84-2.22-7-.44-7,4a15.27,15.27,0,0,0,6.93,12c3.84,2.22,7,.44,7-4A15.27,15.27,0,0,0,349.39,63.4Z"/><path class="cls-15" d="M370.47,75.57c-3.84-2.22-7-.44-7,4a15.28,15.28,0,0,0,6.94,12c3.84,2.22,7,.44,7-4A15.27,15.27,0,0,0,370.47,75.57Z"/><polygon class="cls-16" points="735.53 186.88 735.04 362.89 508.5 232.1 509 56.09 735.53 186.88"/><path class="cls-6" d="M711.87,317.5a9.3,9.3,0,0,1,4.21,7.3c0,2.68-1.91,3.76-4.24,2.41L530.9,222.75a9.3,9.3,0,0,1-4.2-7.29c0-2.68,1.9-3.76,4.23-2.42Z"/><polygon class="cls-7" points="608.41 164.63 639.12 205.29 608.28 210.41 608.41 164.63"/><path class="cls-13" d="M618.83,151.74c-19.7-11.37-35.71-2.24-35.78,20.39s15.85,50.18,35.54,61.55,35.71,2.24,35.77-20.38S638.52,163.11,618.83,151.74Zm-10.55,58.67.13-45.78,30.71,40.66Z"/><polygon class="cls-8" points="804.28 450.41 803.89 589.09 625.41 486.04 625.81 347.37 804.28 450.41"/><polygon class="cls-9" points="625.7 385.88 804.17 488.93 804.28 450.41 625.81 347.37 625.7 385.88"/><polygon class="cls-7" points="638.89 471.56 697.63 505.47 697.7 443.36 638.96 409.44 638.89 471.56"/><polygon class="cls-13" points="715.29 458.15 715.27 464.6 791.43 508.57 791.45 502.12 715.29 458.15"/><polygon class="cls-13" points="715.29 472.72 715.27 479.17 791.43 523.14 791.45 516.69 715.29 472.72"/><polygon class="cls-13" points="715.29 487.28 715.27 493.73 791.43 537.7 791.45 531.25 715.29 487.28"/><polygon class="cls-13" points="715.29 501.85 715.27 508.3 791.43 552.27 791.45 545.82 715.29 501.85"/><path class="cls-13" d="M436.91,418.7c11,6.36,19.91,21.77,19.88,34.43s-9,17.75-20,11.39L363,421.93c-11-6.35-19.91-21.77-19.87-34.41s9-17.76,20-11.4Z"/><path class="cls-17" d="M305.67,929.85s5.72,1.42,7.41,6.93-2,9.73-2.92,11.42-3.86,2.12-4.49,3-4,2.54-6.13,2.11-5.08-10.16-3-16.5S305.67,929.85,305.67,929.85Z"/><path class="cls-18" d="M220.44,964.28c-3.12-14.27-.86-45.07-.86-45.07s19.4-3.74,27.53,15c9.92-5.29,42.27-2.11,42.27-2.11s10.45,35.22,12.23,50.82-3.5,35.66-9.55,50.38-11.85,58-12.3,60.63a40.47,40.47,0,0,0,0,7.57l-16-19.17s1.35-29.42,3.13-45.91,3.77-33.44,3.77-33.44-8.95-28.53-15.51-37.45l-3-4.9s-.41-.56-1.06-1.53c1.19,30.8-3.44,62.24-3.84,70.18-.45,8.92,0,54,0,54l-12.48,4.45s0-7.13-4-27.19-6.25-70-6.69-78.91S223.57,978.54,220.44,964.28Z"/><path class="cls-17" d="M277.08,785.79l-.28-3.2s3.64-7,7-10.1,14.44-9.53,16.61-10.65,5.42-2.8,8.28-2.8.9,4.48-4.43,7.85a74.84,74.84,0,0,0-7.85,5.52s-.84,3.73,1.12,3.73,2.88,2.24,2.88,2.24-.91,5.57-2.88,7.41-7,6.33-7,6.33l-16.66,8.38Z"/><path class="cls-19" d="M271.25,836.64s14.38-29.37,16.22-34,4.59-11.32,4.59-11.32l-15-10.41s-19.58,21.73-20.5,22.34-11.32,22-11.32,23.26,4.84,15.6,4.84,15.6Z"/><path class="cls-17" d="M268.06,827.2v-9.87c7.55-7,5.81-16.83,5.81-16.83l.17-4.84s-5.24,7.71-8.75,10.52-4.56,13-15.43,14.38c0,0-4.91,14.38,6,12.28S268.06,827.2,268.06,827.2Z"/><path class="cls-20" d="M270.9,804.78c.43-1,3.14-9.12,3.14-9.12s1.73-3.51,0-11.23-10.15-13.33-19.27-12.63-24.91,7-23.5,23.86c0,0-5.62,3.5-8.07,16.48s3.16,20.7,8.77,26,6.66,13.68,6.66,13.68,13.33-9.47,11.23-31.22C249.86,820.56,262.83,822.66,270.9,804.78Z"/><path class="cls-19" d="M225.65,823.72c-19.29,12.62-3.85,33,.35,45.6s2.81,28.76-3.39,35.07-6.43,16.14-6.43,16.14c1.76,4.56,18.59,30.51,47.36,27S294.05,929,294.05,929a70,70,0,0,0-6.39-23.15c-5.69-11.93-2-23.86-.62-37.54a153.52,153.52,0,0,0,0-27.36c-17.89-17.18-41-21.39-41-21.39Z"/><path class="cls-19" d="M294.05,849s-4.36-10.23-11-6.88-11.46,6-12.35,12.18,4,30.87,3.32,37,4.18,17.64,7.27,23.38,14.55,27.34,14.55,27.34l12.28-9.35s-8.79-28.14-9.63-33.43-4.46-28.67-4.46-28.67Z"/><path class="cls-20" d="M238.63,851.78s-1-8.42-6.66-13.68-11.23-13-8.77-26,8.07-16.48,8.07-16.48,13.68-.36,18.59,24.9C252,842.31,238.63,851.78,238.63,851.78Z"/><path class="cls-21" d="M244,1097.43s-3.14-.52-6.06,4.11-2.46,7.54-2.46,7.54h-4.71s-1.57-11.2,1.12-15.24S243.13,1092.68,244,1097.43Z"/><path class="cls-22" d="M241.93,1082.37s3.18-1.15,5.29.9,1.44,11,9.15,12.92,2.16,12.13,2.16,12.13-6.28,1.71-9.87,0-4.26-15.38-16.82-14.48C231.84,1093.84,229.15,1080.11,241.93,1082.37Z"/><path class="cls-21" d="M268.42,1103s-5.16,3.59-4.71,8.75a44.84,44.84,0,0,1,0,8.68h-7.18s-.89-16.08,1.57-22.36S268.42,1103,268.42,1103Z"/><path class="cls-22" d="M266.85,1083.52s5,2,8,9,5.83,11,9.87,11.44,7.85.9,10.54,3.14c0,0,1.8,5.16-.89,9s-8.82,5.39-13.05,3.82-8.9-13-14.52-16.83-9.22-3.14-9.89-2.91-2.41-14.18,6.76-17.75Z"/><g class="cls-1"><polygon class="cls-23" points="290.8 325.75 290.59 399.17 255.82 379.13 256.08 397.04 237.36 368.47 200.93 347.41 201.14 273.98 290.8 325.75"/><polygon class="cls-24" points="290.8 325.75 295.75 322.86 295.55 396.29 290.59 399.17 290.8 325.75"/><polygon class="cls-24" points="201.14 273.98 206.1 271.1 295.75 322.86 290.8 325.75 201.14 273.98"/></g><path class="cls-7" d="M222.83,315.6c-4.21-2.42-7.63-.48-7.64,4.36s3.39,10.71,7.59,13.14,7.62.48,7.64-4.35A16.77,16.77,0,0,0,222.83,315.6Z"/><path class="cls-7" d="M245.89,328.92c-4.2-2.43-7.62-.48-7.64,4.36a16.71,16.71,0,0,0,7.59,13.13c4.21,2.43,7.63.49,7.64-4.34A16.72,16.72,0,0,0,245.89,328.92Z"/><path class="cls-7" d="M269,342.24c-4.21-2.43-7.63-.49-7.64,4.35a16.69,16.69,0,0,0,7.59,13.14c4.2,2.43,7.62.48,7.63-4.35A16.71,16.71,0,0,0,269,342.24Z"/><g class="cls-1"><polygon class="cls-10" points="274.4 689.8 274.2 759.17 241.36 740.23 240.9 755.58 223.92 730.16 189.5 710.27 189.7 640.9 274.4 689.8"/><polygon class="cls-25" points="274.4 689.8 279.08 687.08 278.89 756.45 274.2 759.17 274.4 689.8"/><polygon class="cls-25" points="189.7 640.9 194.38 638.18 279.08 687.08 274.4 689.8 189.7 640.9"/></g><path class="cls-16" d="M210.19,680.22c-4-2.29-7.21-.45-7.22,4.12a15.8,15.8,0,0,0,7.17,12.41c4,2.29,7.21.46,7.22-4.11A15.81,15.81,0,0,0,210.19,680.22Z"/><path class="cls-16" d="M232,692.8c-4-2.29-7.2-.45-7.21,4.12a15.82,15.82,0,0,0,7.17,12.41c4,2.29,7.2.45,7.21-4.11A15.77,15.77,0,0,0,232,692.8Z"/><path class="cls-16" d="M253.77,705.38c-4-2.29-7.21-.45-7.22,4.12a15.79,15.79,0,0,0,7.17,12.41c4,2.29,7.2.45,7.21-4.11A15.8,15.8,0,0,0,253.77,705.38Z"/><g class="cls-1"><polygon class="cls-26" points="157.91 562.12 158.33 763.43 127.62 781.16 127.2 579.85 157.91 562.12"/><polygon class="cls-9" points="127.62 781.16 97.2 763.48 96.78 562.17 127.2 579.85 127.62 781.16"/><polygon class="cls-27" points="127.2 579.85 96.78 562.17 127.48 544.44 157.91 562.12 127.2 579.85"/></g><g class="cls-1"><polygon class="cls-13" points="109.51 612.8 109.86 791.41 79.16 809.14 78.81 630.53 109.51 612.8"/><polygon class="cls-28" points="79.16 809.14 48.73 791.46 48.38 612.85 78.81 630.53 79.16 809.14"/><polygon class="cls-29" points="78.81 630.53 48.38 612.85 79.08 595.12 109.51 612.8 78.81 630.53"/></g><g class="cls-1"><polygon class="cls-30" points="61.12 668.03 61.4 819.39 30.7 837.12 30.42 685.76 61.12 668.03"/><polygon class="cls-25" points="30.7 837.12 0.28 819.44 0 668.08 30.42 685.76 30.7 837.12"/><polygon class="cls-10" points="30.42 685.76 0 668.08 30.7 650.35 61.12 668.03 30.42 685.76"/></g><polygon class="cls-31" points="409.57 770.79 479.39 810.62 479.39 796.45 408.21 756.52 409.57 770.79"/><polygon class="cls-31" points="470.87 581.15 540.7 620.98 540.7 606.8 469.51 566.88 470.87 581.15"/><polygon class="cls-31" points="448.19 644.33 518.01 684.15 518.01 669.98 446.83 630.05 448.19 644.33"/><polygon class="cls-31" points="390.92 823.06 460.74 862.89 460.74 848.72 389.56 808.79 390.92 823.06"/><polygon class="cls-31" points="520.88 408.96 590.7 448.79 590.7 434.62 519.52 394.69 520.88 408.96"/><polygon class="cls-31" points="503.5 466.78 573.32 506.61 573.32 492.44 502.14 452.51 503.5 466.78"/><polygon class="cls-31" points="424.94 711.03 494.76 750.86 494.76 736.68 423.58 696.76 424.94 711.03"/><polygon class="cls-32" points="541.97 288.51 551.35 282.03 564.33 289.74 555.11 296.07 541.97 288.51"/><polygon class="cls-31" points="564.33 289.74 389.25 849.76 380.37 852.93 533.03 343.84 555.11 296.07 564.33 289.74"/><polygon class="cls-33" points="380.37 852.93 555.11 296.07 541.97 288.51 367.23 845.37 380.37 852.93"/><polygon class="cls-33" points="510.33 406.57 590.7 452.45 590.7 438.28 519.52 398.35 510.33 406.57"/><polygon class="cls-33" points="492.95 464.38 573.32 510.26 573.32 496.1 502.14 456.17 492.95 464.38"/><polygon class="cls-31" points="488.37 520.88 558.2 560.71 558.2 546.53 487.01 506.61 488.37 520.88"/><polygon class="cls-33" points="477.83 518.48 558.2 564.37 558.2 550.19 487.01 510.26 477.83 518.48"/><polygon class="cls-33" points="460.32 578.75 540.7 624.63 540.7 610.46 469.51 570.54 460.32 578.75"/><polygon class="cls-33" points="437.64 641.93 518.01 687.81 518.01 673.64 446.83 633.71 437.64 641.93"/><polygon class="cls-33" points="414.39 708.63 494.76 754.51 494.76 740.34 423.58 700.41 414.39 708.63"/><polygon class="cls-33" points="399.02 768.39 479.39 814.28 479.39 800.11 408.21 760.18 399.02 768.39"/><polygon class="cls-33" points="380.37 820.67 460.74 866.55 460.74 852.38 389.56 812.45 380.37 820.67"/><polygon class="cls-32" points="619 330.98 628.38 324.5 641.36 332.21 632.14 338.55 619 330.98"/><polygon class="cls-31" points="641.36 332.21 466.28 892.23 457.4 895.41 610.06 386.32 632.14 338.55 641.36 332.21"/><polygon class="cls-33" points="457.4 895.41 632.14 338.55 619 330.98 444.26 887.84 457.4 895.41"/><path class="cls-34" d="M455.58,697.17s-7.65,3.28-9.11,7.66-.73,9.84,2.19,12,10.57,2.91,16.4,6.56S476,734,480.73,735.08s14.21-2.55,12-7.29-14.46-14.5-14.46-14.5Z"/><path class="cls-34" d="M410.75,778.81a93.21,93.21,0,0,0,0,10.94c.37,5.83,4,7.29,11.67,5.47s7.28-9.48,15.67-12.76,13.12-.73,15.67-3.65-1.09-6.56-8-9.11-19.68,0-19.68,0Z"/><path class="cls-35" d="M501.14,598.77c-16.76,0-50.3,5.83-50.3,5.83l-24.36,15.32-30.67-5.12s1.82,22.6,7.29,39.73,3.64,44.1,2.91,51-.36,55,4.74,73.25c0,0,9.11,4.38,16,0s8-7.28,8-7.28-1.1-41.19,0-53.58c.85-9.64,6.77-40.47,8.5-61.91,18.25.22,36.69-13.9,36.69-13.9s-16.15,32.44-19.56,39-7.77,16.64-7.77,16.64,13.12,14,27.33,15.79c0,0,15.67-35.71,24.42-51.39S525.2,625,524.83,614.8,517.91,598.77,501.14,598.77Z"/><path class="cls-36" d="M472,505.14l4-4.05s13.49-1.09,18.23,0,19.31,5.6,19.68,13-4,3.9-11.3,0-9.09-1.21-9.65,0-3.45,7,0,10,4.55,1.74,6,6-4.37,1.27-10.2-4.36A112.7,112.7,0,0,0,476,515.3Z"/><path class="cls-10" d="M447.47,494.53s24.15,3.28,28.52,6.56V515.3s-22.42,1.1-28.52,4.38S437,507.1,437,507.1Z"/><path class="cls-36" d="M445,462.77s10.41,6,12.6,10.41,0,19.18-3.29,21.37-2.4,11.51-2.57,18.08c0,0-11.13,3.29-19.35,0s-9.86-14.24-9.86-14.24Z"/><path class="cls-10" d="M418,493.07s-13.12,2.92-20,9.48-5.47,28.06-2.19,35.72,1.82,69.61,0,76.53c0,0,5.83,14.58,18.59,19.32s27.33,5.83,38.27,0,12-14.58,12-14.58-2.55-24.78-1.45-40.45,12-44.47-1.1-57.23-23-16.72-23-16.72S424.59,504.27,418,493.07Z"/><path class="cls-36" d="M546,544.46l2.19-8s2.21-7.29,5.84-9.84,2.18.65,6.91,3.43,12,4.23,16.77,2,6.2,0,4,5.83-4,20.41-33.53,13.12Z"/><path class="cls-10" d="M458.5,530.12s-10.57-17.12,0-11.65S496,554.3,512.8,551.75s35.36-15.31,35.36-15.31,10.57,8.39,3.28,18.23c0,0-14.57,21.14-42.64,23S445.38,548.71,458.5,530.12Z"/><path class="cls-37" d="M447.2,471.93s2.33-9.47-6.67-14.58S422.05,465,417,469s-7.66,18.58-4,25.14,7.67,10.21,16.41,10.94,13.84-9.11,13.48-14.94S447.2,471.93,447.2,471.93Z"/><polygon class="cls-4" points="492.05 913.14 484.11 917.76 484.04 941.37 491.98 936.76 492.05 913.14"/><polygon class="cls-4" points="392.2 917.76 384.2 913.14 384.13 936.76 392.13 941.38 392.2 917.76"/><path class="cls-4" d="M415.19,957.51c0-.1,0-.2,0-.3s0-.23,0-.35l.06-.3.09-.34a1.71,1.71,0,0,1,.09-.3c0-.11.07-.22.11-.33s.07-.2.11-.3a2.63,2.63,0,0,1,.15-.35c0-.1.08-.19.13-.29l.18-.35.15-.28.26-.4a2.13,2.13,0,0,1,.16-.25l.32-.45.15-.19a7.69,7.69,0,0,1,.6-.7l.16-.17c.17-.18.34-.35.53-.52l.25-.24.33-.29.32-.26c.11-.1.24-.19.36-.28l.34-.26.39-.27.37-.25.42-.27.53-.32c.34-.2.7-.39,1.06-.58l.31-.15.86-.41.29-.13,1.15-.47.2-.07,1-.35.42-.14.56-.17.48-.13.57-.16.49-.12.58-.13.49-.11.61-.12.46-.09,1.3-.2.18,0,1.15-.13.44-.05.75-.06.46,0,.78,0,.43,0h2.27c.74,0,1.47.06,2.2.12h.05q1.13.09,2.22.24l.18,0,.93.15.39.07.71.14.37.08.78.17.42.11.7.18.4.12c.36.1.73.22,1.09.34l.19.06,1.21.44.26.1c.52.21,1,.43,1.52.67l.15.07c.52.25,1,.52,1.51.8,4.54,2.62,6.81,6.06,6.8,9.5l.07-23.62c0-3.44-2.26-6.88-6.8-9.5-.49-.28-1-.54-1.51-.79l-.15-.08q-.75-.35-1.53-.66l-.13-.06-.12,0c-.4-.16-.8-.31-1.22-.45l-.19-.06-1.09-.34-.18-.06-.21,0-.7-.19-.43-.1c-.25-.07-.51-.12-.77-.18l-.29-.06-.08,0-.71-.13-.39-.08-.93-.14-.17,0h0c-.73-.11-1.48-.19-2.22-.25h-.05c-.73-.06-1.47-.1-2.2-.12h-1.59l-.68,0h-.43l-.78,0-.47,0-.74.07-.26,0-.18,0-1.15.14-.18,0c-.44.06-.87.13-1.31.21l-.12,0L431,922l-.6.12-.49.11-.59.14-.48.12-.57.15-.48.14-.56.17-.25.07-.17.06-.55.19,0-19.41,0-6.52L426.18,921v2.34l-.41.14-.21.08c-.39.15-.77.3-1.15.47l-.29.13-.85.4-.31.16c-.36.18-.72.37-1.06.57l-.28.17-.26.16-.42.26-.36.25c-.13.09-.27.18-.39.28l-.34.25-.37.28-.31.27c-.12.09-.23.19-.34.29l-.13.12-.12.11-.52.52-.17.18c-.21.23-.41.46-.59.69l0,0-.12.17-.33.44a2.13,2.13,0,0,1-.16.25l-.25.41-.07.11-.08.17a2.79,2.79,0,0,0-.18.34c0,.1-.09.2-.14.29l-.14.35-.07.16-.05.14c0,.11-.07.22-.11.33l-.09.31c0,.11-.05.22-.08.33s0,.12,0,.19,0,.08,0,.12l-.06.34,0,.31c0,.11,0,.23,0,.34s0,.14,0,.21a1.27,1.27,0,0,0,0,.2l-.06,23.61c0-.13,0-.27,0-.4Z"/><path class="cls-4" d="M502.75,941.55H491.48c-.15.4-.32.8-.5,1.19l-.09.21c-.17.38-.36.76-.56,1.13l-.12.22c-.21.39-.43.78-.67,1.17l0,0c-.23.37-.47.74-.73,1.1l-.17.25c-.26.37-.54.73-.82,1.09l-.21.25c-.24.3-.49.59-.74.89l-.3.33c-.27.3-.55.59-.83.88l-.22.23c-.38.39-.78.77-1.19,1.15l0,9.27-8.6,5-8-4.61c-.86.31-1.74.61-2.62.9l-.83.27-1.43.43-.91.26-1.5.39-.87.22-1.73.4-.67.15c-.8.17-1.61.33-2.42.48-.49.09-1,.16-1.48.24l-.75.13-2.25.32,0,6.53H426.66l0-6.53-1.69-.24-1.63-.26-.89-.15-1.89-.36-.58-.11c-.87-.18-1.74-.38-2.59-.58l-.7-.18-1.9-.5-.84-.24-1.69-.52-.75-.23-2.36-.82L401.18,966l-8.82-5.09,0-9.18a28.78,28.78,0,0,1-6.07-7.5,21.46,21.46,0,0,1-1.23-2.63H373.82l-.08-13.66-.06,23.61.07,13.66h10.67l0,14.75,16.73,9.66,7.94-4.62c.78.29,1.57.56,2.36.82l.76.24q.84.27,1.68.51l.42.13.43.11c.63.18,1.26.34,1.89.5l.7.18c.86.21,1.72.4,2.59.59H420l.5.1,1.89.36.89.15,1.64.26.44.07,1.24.16,0,6.53h23.58l0-6.54c.74-.09,1.47-.19,2.2-.31.25,0,.49-.08.74-.12l1.43-.24h.05c.82-.14,1.62-.3,2.43-.47l.67-.15,1.72-.4.88-.22,1.49-.4.91-.26,1.43-.43.52-.15.31-.11c.89-.29,1.76-.59,2.63-.91l8,4.62,16.62-9.66,0-14.75h10.41Z"/><path class="cls-7" d="M491.48,941.55h11.27l-.08-13.66H491.4a26.9,26.9,0,0,0-7.29-10.12l7.94-4.62-16.73-9.66-7.95,4.62a80.16,80.16,0,0,0-17.51-4.2l0-6.52H426.24l0,6.52a79.57,79.57,0,0,0-17.46,4.2l-8-4.62-16.63,9.66,8,4.62A26.29,26.29,0,0,0,385,927.89H373.74l.08,13.66h11.27a26.93,26.93,0,0,0,7.3,10.13l-7.95,4.61L401.18,966l7.94-4.61a80.15,80.15,0,0,0,17.51,4.19l0,6.53h23.59l0-6.53a79.56,79.56,0,0,0,17.46-4.19l8,4.61,16.62-9.66-8-4.61A26.54,26.54,0,0,0,491.48,941.55Zm-36.89,2.6c-9,5.21-23.55,5.21-32.58,0s-9.07-13.66-.1-18.87,23.55-5.21,32.57,0S463.55,938.94,454.59,944.15Z"/><polygon class="cls-4" points="594 973.62 587.87 977.18 587.82 995.4 593.95 991.84 594 973.62"/><polygon class="cls-4" points="516.96 977.18 510.79 973.62 510.74 991.84 516.91 995.4 516.96 977.18"/><path class="cls-4" d="M534.7,1007.85l0-.24c0-.08,0-.17,0-.26a2,2,0,0,1,.05-.24l.06-.25c0-.08,0-.16.07-.24l.08-.26.09-.23c0-.09.08-.18.11-.27s.07-.15.11-.22.09-.18.14-.27l.12-.21.19-.32.13-.19c.08-.11.16-.23.25-.34l.11-.15c.14-.18.3-.36.46-.54l.13-.13.4-.4.2-.19.25-.22a2.43,2.43,0,0,1,.25-.2l.28-.22.26-.2.3-.21.28-.19.33-.21.41-.25c.26-.15.54-.3.82-.44l.24-.12c.21-.11.43-.21.66-.31l.22-.1c.29-.13.59-.25.89-.36l.16-.06c.25-.1.51-.19.77-.27l.32-.11.43-.13.37-.1c.15-.05.3-.08.45-.12l.37-.1.45-.1.38-.08.46-.1.36-.06c.33-.06.67-.12,1-.16l.14,0,.89-.11.33,0,.58-.05.36,0,.6,0,.33,0h1.75c.57,0,1.14,0,1.7.09h0c.57.05,1.14.11,1.71.19l.14,0,.72.12.3,0,.55.11.28.06.6.14.33.08.54.14.3.09.84.26.15.05c.32.1.63.22.94.34l.19.08c.4.16.8.33,1.18.51l.11.06c.4.19.79.39,1.17.61,3.51,2,5.25,4.68,5.25,7.33l0-18.22c0-2.65-1.74-5.31-5.25-7.33-.37-.22-.76-.42-1.16-.61l-.12-.06c-.38-.18-.78-.35-1.18-.51l-.1,0-.09,0c-.31-.12-.62-.24-.94-.34l-.15,0-.84-.26-.14-.05-.16,0-.54-.14-.33-.08-.6-.14-.22,0h-.06l-.55-.11-.3-.05-.72-.12-.13,0h0c-.56-.08-1.14-.14-1.71-.19h0c-.56-.05-1.13-.08-1.7-.09h-1.84l-.24,0-.6,0-.36,0-.57.05-.2,0h-.14l-.89.11-.14,0c-.34,0-.67.1-1,.16h-.09l-.26.05-.47.1-.38.08-.45.1-.37.1-.45.11-.36.11-.44.13-.19.06-.13.05-.43.14,0-15,0-5-.05,18.22v1.8l-.32.12-.16,0-.89.37-.22.1-.66.31-.24.12c-.28.14-.55.29-.82.44l-.22.13-.19.12-.32.21-.29.19-.3.21-.26.2-.28.22-.25.2-.25.22-.11.1a.34.34,0,0,1-.09.08l-.4.4-.13.14c-.16.18-.32.36-.46.54l0,0-.09.13c-.09.11-.17.23-.25.34a2.14,2.14,0,0,0-.13.19l-.19.32a.35.35,0,0,0,0,.08l-.07.13-.14.27a2.14,2.14,0,0,0-.1.22l-.12.27a.61.61,0,0,1,0,.12l0,.11-.09.26c0,.08,0,.16-.07.23l-.06.26a.89.89,0,0,0,0,.14s0,.07,0,.1a2.51,2.51,0,0,0,0,.27l0,.23c0,.09,0,.18,0,.27s0,.1,0,.15v.16l-.06,18.22c0-.1,0-.21,0-.31A2.45,2.45,0,0,1,534.7,1007.85Z"/><path class="cls-4" d="M602.26,995.53h-8.7c-.12.31-.25.62-.38.92l-.07.16c-.14.29-.28.59-.44.88l-.09.16c-.16.31-.33.61-.52.91l0,0-.56.85-.14.19c-.2.28-.41.57-.63.84l-.16.2c-.18.23-.37.45-.57.68l-.23.26-.64.68-.17.17-.92.89,0,7.15-6.64,3.86-6.17-3.56c-.66.25-1.34.48-2,.7l-.65.2c-.36.12-.73.23-1.09.33l-.71.21-1.15.3-.68.17-1.33.31-.51.11c-.62.13-1.25.26-1.88.37l-1.14.19-.57.1q-.87.13-1.74.24v5H543.55l0-5-1.3-.18-1.26-.2-.68-.11-1.46-.28-.45-.09c-.67-.14-1.34-.29-2-.45l-.54-.14-1.46-.38-.65-.19c-.44-.12-.87-.26-1.3-.4l-.58-.18q-.93-.3-1.83-.63l-6.12,3.56-6.81-3.93,0-7.08a22.41,22.41,0,0,1-4.68-5.79,16.05,16.05,0,0,1-.94-2h-8.7L502.72,985l-.05,18.22.06,10.54H511l0,11.38,12.91,7.45L530,1029q.9.33,1.83.63l.58.19c.43.13.86.27,1.3.39l.32.1.33.09,1.46.38.54.14c.66.16,1.33.31,2,.45l.06,0,.39.07,1.46.28.68.11,1.26.2.35,0,1,.13,0,5h18.2v-5l1.7-.24.57-.1,1.1-.18h0c.63-.11,1.25-.24,1.87-.37l.52-.11,1.33-.31.68-.17,1.15-.3.7-.21c.37-.1.74-.21,1.1-.33l.4-.12.25-.08c.68-.22,1.36-.45,2-.7l6.17,3.56,12.82-7.45,0-11.38h8Z"/><path class="cls-7" d="M593.56,995.53h8.7L602.2,985h-8.7a20.85,20.85,0,0,0-5.63-7.81l6.13-3.56-12.91-7.46L575,969.72a61.87,61.87,0,0,0-13.51-3.23l0-5H543.23l0,5a61.47,61.47,0,0,0-13.48,3.23l-6.16-3.56-12.83,7.46,6.17,3.56a20.34,20.34,0,0,0-5.54,7.81h-8.7l.06,10.54h8.7a20.81,20.81,0,0,0,5.62,7.82l-6.12,3.56,12.91,7.45,6.12-3.56a61.87,61.87,0,0,0,13.51,3.23l0,5h18.2l0-5a61.24,61.24,0,0,0,13.47-3.23l6.17,3.56,12.83-7.45-6.17-3.56A20.44,20.44,0,0,0,593.56,995.53Zm-28.47,2c-6.91,4-18.16,4-25.13,0S533,987,539.88,983s18.17-4,25.13,0S572,993.52,565.09,997.54Z"/><polygon class="cls-4" points="498.94 1013.37 492.81 1016.93 492.76 1035.15 498.88 1031.59 498.94 1013.37"/><polygon class="cls-4" points="421.89 1016.93 415.73 1013.37 415.68 1031.59 421.84 1035.15 421.89 1016.93"/><path class="cls-4" d="M439.64,1047.6a1.79,1.79,0,0,1,0-.23c0-.09,0-.18,0-.27a1.89,1.89,0,0,1,.05-.23,2,2,0,0,1,.06-.26,2.17,2.17,0,0,1,.07-.24,2.41,2.41,0,0,1,.08-.25l.09-.23.11-.27.11-.23a2.15,2.15,0,0,1,.14-.26.94.94,0,0,1,.12-.22c.06-.1.12-.21.19-.31l.12-.19.25-.35.12-.15c.14-.18.29-.36.46-.54l.13-.13.4-.4.19-.18.26-.23.25-.2.27-.22.27-.2.3-.21.28-.19.33-.2c.13-.09.27-.17.41-.25s.54-.31.81-.45l.25-.12c.21-.11.43-.21.66-.31l.22-.1c.29-.13.59-.25.89-.36l.16-.06.77-.27.32-.1.43-.14.37-.1.44-.12.38-.09.45-.11.38-.08.46-.09.36-.07,1-.16.14,0,.89-.1.34,0,.57,0,.36,0,.6,0h2.09c.57,0,1.13,0,1.7.09h0c.57,0,1.14.11,1.71.19l.14,0,.71.11.31.06.54.1.29.06.6.14.33.08.53.14.31.09.84.26.15,0,.94.34.19.08c.4.16.79.33,1.18.51l.11.06c.4.2.79.4,1.17.62,3.5,2,5.25,4.67,5.25,7.32l.05-18.22c0-2.65-1.75-5.3-5.25-7.33-.38-.21-.77-.42-1.17-.61l-.11-.06c-.38-.18-.78-.35-1.18-.51l-.1,0-.09,0-.94-.34-.15,0-.84-.26-.14,0-.16,0-.54-.14-.33-.08-.6-.14-.22,0h-.06l-.55-.1-.3-.06-.72-.11-.14,0h0c-.57-.08-1.14-.15-1.71-.2h0c-.57,0-1.13-.07-1.7-.09h-2.08l-.61,0-.35,0-.58,0-.2,0-.14,0-.88.1-.14,0-1,.16-.09,0-.27,0-.46.09-.38.08-.45.11-.38.09-.44.12-.37.1-.43.14-.19,0-.13.05-.43.15,0-15,0-5-.06,18.22v1.8l-.31.11-.16.06c-.3.11-.6.23-.89.36l-.22.1c-.23.1-.45.2-.66.31l-.24.12c-.28.14-.56.29-.82.44l-.22.13-.19.13-.33.2-.28.19-.3.21-.26.2-.28.22-.25.2-.25.23-.11.09-.09.09-.4.4-.13.13c-.16.18-.32.36-.46.54l0,0-.09.13a2.8,2.8,0,0,0-.25.35,1.27,1.27,0,0,0-.13.19,3.21,3.21,0,0,0-.19.31l-.06.09-.06.13a2.15,2.15,0,0,0-.14.26l-.11.23-.11.27-.05.12a.76.76,0,0,1,0,.11c0,.08,0,.17-.08.25a2.17,2.17,0,0,0-.07.24l-.06.26s0,.09,0,.14,0,.06,0,.09a2.51,2.51,0,0,0,0,.27,1.81,1.81,0,0,0,0,.23,2.45,2.45,0,0,0,0,.27.81.81,0,0,0,0,.16s0,.1,0,.15l0,18.22c0-.1,0-.21,0-.31A2.45,2.45,0,0,1,439.64,1047.6Z"/><path class="cls-4" d="M507.19,1035.28H498.5q-.18.46-.39.93a1,1,0,0,1-.07.15c-.13.3-.28.59-.43.88l-.09.17c-.16.3-.33.6-.52.9l0,0c-.18.29-.37.57-.56.85l-.14.19c-.2.29-.41.57-.63.85l-.16.19c-.18.23-.38.46-.57.68l-.24.26c-.2.23-.42.46-.63.68l-.17.18-.92.88,0,7.16-6.64,3.85-6.17-3.56c-.66.25-1.34.48-2,.7l-.65.21-1.1.33-.7.2-1.16.3-.67.17-1.33.31-.52.12c-.62.13-1.24.25-1.87.36l-1.14.2-.58.09-1.73.25,0,5H448.49l0-5-1.3-.19-1.26-.2-.68-.11-1.46-.28-.45-.09c-.67-.13-1.34-.29-2-.45l-.54-.13c-.49-.13-1-.25-1.46-.39l-.65-.18-1.31-.4-.57-.18c-.62-.21-1.23-.42-1.83-.64l-6.13,3.56-6.8-3.92,0-7.09a22.37,22.37,0,0,1-4.68-5.78,17.05,17.05,0,0,1-.95-2h-8.69l-.06-10.54-.05,18.22.06,10.54h8.23l0,11.38,12.91,7.45,6.13-3.56,1.82.64.58.18,1.31.4.32.09.33.09c.48.14,1,.26,1.46.39l.54.13c.66.16,1.32.32,2,.46h.06l.38.07,1.46.28.69.12,1.26.19.34.06,1,.13,0,5h18.19l0-5c.57-.07,1.13-.15,1.69-.24l.58-.09,1.1-.19h0c.63-.11,1.25-.23,1.87-.36l.52-.12,1.33-.3.67-.18c.39-.09.77-.2,1.16-.3l.7-.2,1.1-.33.4-.12.24-.09c.69-.22,1.36-.45,2-.7l6.17,3.56,12.82-7.45,0-11.38h8Z"/><path class="cls-7" d="M498.5,1035.28h8.69l-.06-10.54h-8.69a20.85,20.85,0,0,0-5.63-7.81l6.13-3.56L486,1005.92l-6.13,3.56a61.32,61.32,0,0,0-13.51-3.24l0-5H448.17l0,5a60.83,60.83,0,0,0-13.47,3.24l-6.17-3.56-12.82,7.45,6.17,3.56a20.48,20.48,0,0,0-5.55,7.81h-8.69l.06,10.54h8.69a20.8,20.8,0,0,0,5.63,7.82l-6.13,3.56,12.91,7.45,6.13-3.56a61.88,61.88,0,0,0,13.51,3.24l0,5h18.2l0-5a61.39,61.39,0,0,0,13.47-3.24l6.17,3.56,12.82-7.45L493,1043.1A20.51,20.51,0,0,0,498.5,1035.28Zm-28.47,2c-6.92,4-18.17,4-25.13,0s-7-10.53-.08-14.56,18.17-4,25.13,0S477,1033.27,470,1037.29Z"/></g></g></svg>