<svg xmlns="http://www.w3.org/2000/svg" viewBox="0 0 41.9 70.5"><defs><style>.cls-1{fill:#702283;}.cls-1,.cls-2,.cls-3,.cls-4,.cls-5,.cls-6{stroke:#1d1d1b;stroke-linejoin:round;stroke-width:0.5px;}.cls-2{fill:#fbba00;}.cls-3{fill:#010101;}.cls-4{fill:#946a1d;}.cls-5{fill:#265aa6;}.cls-6{fill:#a48213;}</style></defs><title>logo</title><g id="Camada_2" data-name="Camada 2"><g id="Logo_secundaria" data-name="Logo secundaria"><polygon class="cls-1" points="32.78 24.15 32.78 34.4 23.91 29.27 23.91 70.25 20.78 68.45 20.95 58.3 6.18 49.77 3.21 48.05 3.21 58.3 0.26 56.6 0.25 46.35 0.25 36.1 12.08 42.93 12.08 12.2 32.78 24.15"/><polygon class="cls-1" points="29.82 66.83 26.92 65.16 26.86 58.3 29.81 56.6 29.82 66.83"/><polygon class="cls-2" points="32.78 34.4 32.78 65.13 29.82 66.83 29.81 56.6 26.86 58.3 26.92 65.1 26.86 68.54 23.91 70.25 23.91 29.27 32.78 34.4"/><polygon class="cls-2" points="12.08 42.93 0.25 36.1 9.12 30.98 12.07 32.69 12.08 42.93"/><polygon class="cls-2" points="32.78 34.4 41.65 29.27 41.65 19.03 32.78 24.15 32.78 34.4"/><polygon class="cls-2" points="41.65 19.03 20.95 7.08 12.08 12.2 20.95 17.32 32.78 24.15 41.65 19.03"/><polygon class="cls-2" points="6.18 49.77 6.18 56.6 3.21 58.3 3.21 48.05 6.18 49.77"/><polygon class="cls-3" points="35.73 25.86 35.73 27.57 37.21 26.71 37.21 25.01 35.73 25.86"/><polygon class="cls-3" points="38.69 24.15 38.69 25.86 40.17 25.01 40.17 23.3 38.69 24.15"/><polygon class="cls-3" points="17.99 19.03 20.95 20.74 20.95 24.15 17.99 22.44 17.99 19.03"/><polygon class="cls-3" points="20.95 10.49 17.99 8.79 17.99 1.96 20.95 3.67 20.95 10.49"/><polygon class="cls-3" points="15.03 13.91 12.08 12.2 12.08 5.37 15.03 7.08 15.03 13.91"/><polygon class="cls-4" points="20.95 10.49 20.95 3.67 23.91 1.96 23.91 8.79 20.95 10.49"/><polygon class="cls-4" points="17.99 1.96 20.95 0.25 23.91 1.96 20.95 3.67 17.99 1.96"/><polygon class="cls-4" points="15.03 13.91 15.03 7.08 17.99 5.37 17.99 12.2 15.03 13.91"/><polygon class="cls-4" points="15.03 3.67 17.99 5.37 15.03 7.08 12.08 5.37 15.03 3.67"/><polygon class="cls-4" points="12.08 12.2 18 15.62 9.12 20.74 9.12 13.91 12.08 12.2"/><polygon class="cls-5" points="20.9 37.77 20.9 41.25 23.91 42.93 23.91 39.52 20.9 37.77"/><polygon class="cls-5" points="18 46.34 15.03 44.64 15.03 48.05 17.99 49.76 18 46.34"/><polygon class="cls-5" points="12.08 25.86 15.03 27.57 15.04 30.98 12.08 29.27 12.08 25.86"/><polygon class="cls-5" points="9.12 48.05 9.12 51.47 6.18 49.77 6.18 46.34 9.12 48.05"/><polygon class="cls-5" points="6.16 42.93 6.16 39.52 3.21 37.81 3.21 41.22 6.16 42.93"/><polygon class="cls-5" points="15.03 37.81 15.04 41.22 12.08 39.52 12.08 36.1 15.03 37.81"/><polygon class="cls-5" points="20.95 58.3 20.95 54.88 23.89 56.6 23.89 60 20.95 58.3"/><polygon class="cls-6" points="29.82 39.52 32.78 37.81 32.78 34.4 29.82 36.1 29.82 39.52"/><polygon class="cls-6" points="23.91 46.35 26.92 44.61 26.92 48.02 23.91 49.76 23.91 46.35"/><polygon class="cls-6" points="9.12 34.4 6.16 36.1 9.12 37.81 12.08 36.1 9.12 34.4"/><polygon class="cls-6" points="23.91 15.62 20.95 17.32 23.91 19.03 26.86 17.32 23.91 15.62"/><polygon class="cls-6" points="20.95 10.49 23.91 12.2 26.86 10.49 23.91 8.79 20.95 10.49"/><polygon class="cls-6" points="29.82 19.03 32.78 17.32 35.73 19.03 32.78 20.74 29.82 19.03"/></g></g></svg>